<?xml version="1.0" standalone="no"?>
<!DOCTYPE svg PUBLIC "-//W3C//DTD SVG 20010904//EN"
 "http://www.w3.org/TR/2001/REC-SVG-20010904/DTD/svg10.dtd">
<svg version="1.0" xmlns="http://www.w3.org/2000/svg"
 width="319.000000pt" height="391.000000pt" viewBox="0 0 319.000000 391.000000"
 preserveAspectRatio="xMidYMid meet">
<metadata>
Created by potrace 1.16, written by Peter Selinger 2001-2019
</metadata>
<g transform="translate(0.000000,391.000000) scale(0.100000,-0.100000)"
fill="#000000" stroke="none">
<path d="M0 3278 c0 -348 4 -638 8 -644 4 -6 20 -10 37 -10 68 -1 314 -18 485
-35 180 -18 193 -17 258 19 12 7 28 10 35 6 6 -4 9 -4 5 0 -5 7 72 56 87 56 2
0 9 -9 15 -19 7 -14 7 -22 -2 -27 -7 -5 -8 -3 -3 6 5 8 4 11 -3 6 -6 -4 -9
-13 -6 -21 4 -8 11 -12 17 -8 6 3 3 -4 -6 -17 -11 -16 -13 -29 -7 -46 6 -14 6
-26 0 -29 -9 -6 -14 8 -11 28 0 4 -4 7 -9 7 -6 0 -10 -7 -10 -15 0 -8 -5 -15
-11 -15 -5 0 -7 5 -4 10 4 6 -5 10 -19 10 -14 0 -26 4 -26 10 0 5 -7 7 -14 4
-12 -4 -14 1 -10 22 3 16 2 26 -1 22 -4 -3 -7 -12 -9 -20 -1 -7 -5 -19 -10
-26 -6 -11 -10 -10 -20 3 -11 15 -14 14 -31 -7 l-20 -23 21 18 c17 14 23 15
27 4 3 -9 16 -12 36 -9 18 2 31 0 31 -7 0 -6 6 -8 13 -6 7 3 19 -7 28 -21 10
-17 19 -22 23 -15 4 6 2 11 -4 11 -6 0 -8 5 -5 10 5 8 11 8 20 0 9 -8 18 -6
31 7 17 17 18 17 11 0 -4 -10 -7 -21 -7 -23 0 -2 -7 -4 -15 -4 -8 0 -15 -5
-15 -10 0 -6 3 -9 8 -9 17 3 32 -2 32 -10 0 -5 -10 -7 -23 -4 -22 6 -22 6 -2
-13 20 -19 24 -70 4 -59 -14 9 -11 -8 7 -33 14 -20 14 -22 0 -22 -9 0 -16 -4
-16 -9 0 -5 -3 -16 -6 -25 -4 -11 0 -14 16 -11 18 3 20 2 10 -10 -9 -11 -6
-13 14 -11 14 2 23 -1 20 -5 -3 -5 -11 -9 -17 -9 -9 0 -12 -21 -11 -72 1 -40
3 -73 4 -73 1 0 3 -18 5 -41 3 -43 4 -43 -49 -35 -11 1 2 16 15 16 5 0 10 4
12 9 3 13 -43 18 -58 6 -14 -12 -40 11 -27 25 4 5 1 5 -6 1 -7 -4 -12 -1 -12
8 0 9 6 16 13 16 7 0 4 7 -7 15 -18 14 -18 15 -2 15 10 0 14 5 11 11 -4 6 -14
8 -24 4 -13 -5 -14 -4 -3 6 13 14 17 33 4 25 -4 -2 -7 17 -6 43 2 45 1 48 -22
43 -14 -3 -25 -12 -25 -23 -1 -11 -2 -25 -3 -31 -1 -7 6 -12 14 -10 11 3 10
-1 -4 -17 -17 -19 -17 -19 6 -14 20 6 22 5 9 -10 -7 -9 -17 -14 -22 -11 -5 3
-9 0 -9 -6 0 -6 -4 -8 -10 -5 -5 3 -10 2 -10 -4 0 -15 18 -23 25 -11 3 5 14
10 23 10 12 0 10 -4 -8 -17 -14 -9 -28 -22 -32 -27 -5 -8 -8 -8 -8 0 0 6 -7
11 -15 11 -20 0 -19 -7 3 -24 16 -14 16 -14 0 -9 -10 3 -18 1 -18 -5 0 -6 -6
-7 -12 -3 -8 4 -10 3 -5 -2 5 -5 12 -9 15 -10 4 0 15 -4 25 -9 14 -6 16 -10 6
-16 -7 -4 -19 -3 -25 2 -8 7 -15 6 -20 -2 -4 -7 -3 -9 4 -5 6 3 14 1 17 -5 4
-5 14 -8 24 -4 12 5 13 3 4 -5 -14 -15 -69 10 -65 28 1 7 -3 12 -9 12 -6 0 -9
-9 -6 -20 3 -11 1 -20 -4 -20 -5 0 -9 7 -9 15 0 8 -6 15 -12 15 -9 0 -8 4 2
10 10 6 11 10 2 10 -6 0 -21 -9 -32 -20 -26 -26 -47 -26 -55 0 -3 11 -11 20
-16 20 -6 0 -7 5 -3 11 5 8 10 7 16 -4 5 -9 15 -14 23 -11 8 4 15 1 15 -5 0
-6 5 -11 10 -11 16 0 12 27 -5 34 -8 3 -15 10 -15 16 0 6 4 9 9 6 5 -3 14 0
20 8 9 10 7 15 -6 18 -30 8 -40 -1 -36 -35 l4 -32 -23 37 c-13 21 -30 38 -38
38 -13 0 -13 1 0 10 12 7 12 11 2 20 -6 5 -10 7 -8 4 3 -3 -10 -22 -27 -41
-18 -20 -31 -39 -29 -44 1 -5 -5 -9 -14 -9 -8 0 -13 4 -10 8 3 5 7 20 9 33 4
20 1 25 -17 26 -19 2 -19 1 -3 -8 31 -18 -3 -43 -40 -30 -1 1 2 12 7 25 8 21
6 23 -12 19 -14 -4 -16 -8 -7 -14 10 -6 10 -11 0 -23 -11 -13 -11 -17 3 -22 9
-4 20 -4 23 0 7 7 63 -43 63 -57 0 -4 7 -16 17 -25 13 -13 15 -13 11 -2 -2 8
4 20 16 26 12 6 20 17 18 25 -3 11 -1 11 9 2 10 -10 9 -16 -4 -31 -20 -21 -22
-32 -6 -32 5 0 7 6 3 13 -4 6 -4 9 1 5 4 -4 14 -3 22 4 11 8 12 7 7 -6 -3 -9
-10 -16 -15 -16 -5 0 -9 -9 -9 -21 0 -11 4 -18 8 -15 11 7 8 -31 -3 -41 -4 -5
-5 -2 -1 5 4 7 2 12 -5 12 -7 0 -9 3 -6 6 12 12 -14 46 -32 41 -22 -5 -54 11
-46 23 3 5 1 11 -4 14 -18 11 -4 -27 14 -40 11 -8 13 -14 6 -14 -8 0 -7 -6 5
-17 11 -11 13 -18 5 -21 -6 -2 -11 -8 -11 -14 0 -6 6 -8 14 -5 15 6 16 -9 2
-32 -7 -10 -3 -12 15 -6 21 7 22 6 7 -8 -8 -9 -24 -14 -34 -12 -10 2 -21 4
-23 4 -2 1 4 9 13 20 15 17 15 19 1 25 -9 3 -13 10 -10 16 4 6 -1 7 -11 3 -12
-4 -15 -3 -10 5 4 7 1 12 -8 12 -22 0 -9 -27 16 -33 30 -8 16 -33 -16 -29 -18
2 -26 0 -22 -7 4 -5 14 -7 24 -4 15 6 15 5 3 -10 -7 -9 -11 -26 -8 -37 3 -13
-1 -21 -14 -25 -15 -5 -16 -9 -6 -20 9 -9 14 -10 19 -1 6 8 8 8 8 -1 0 -7 -9
-17 -20 -23 -16 -9 -22 -7 -27 6 -6 16 -7 16 -14 -2 -7 -18 -8 -18 -8 -1 -1
23 -21 43 -41 42 -8 -1 -26 6 -39 14 -23 15 -24 14 -13 -6 9 -16 9 -22 0 -25
-7 -3 -5 -7 6 -11 9 -4 15 -3 11 2 -3 5 -1 12 5 16 5 3 10 -1 10 -10 0 -9 5
-13 10 -10 6 4 7 12 3 18 -4 7 0 6 10 -2 21 -16 12 -35 -14 -28 -11 3 -19 1
-19 -3 0 -5 -14 -2 -30 7 -17 8 -27 19 -24 25 4 7 2 8 -5 4 -9 -6 -9 -11 1
-23 10 -12 9 -17 -3 -23 -8 -5 -16 -26 -17 -46 -2 -21 -8 -45 -15 -53 -7 -8
-7 -12 -1 -8 6 3 11 0 11 -8 0 -7 -8 -12 -18 -10 -10 2 -19 -4 -22 -16 -3 -12
0 -19 9 -19 15 0 37 -34 27 -43 -3 -4 -18 2 -32 12 -14 10 -34 21 -44 24 -9 4
-17 12 -17 19 0 9 -3 8 -10 -2 -6 -10 -10 -11 -10 -2 0 6 -5 12 -11 12 -13 0
-40 26 -34 32 3 3 -1 5 -9 5 -7 0 -13 -7 -12 -16 1 -18 46 -67 46 -50 0 5 5 7
10 4 6 -4 8 -11 5 -16 -3 -5 0 -6 8 -3 8 3 18 1 22 -5 3 -6 17 -11 31 -11 17
0 23 -4 18 -12 -4 -7 -3 -8 4 -4 7 4 12 2 12 -3 0 -6 5 -10 11 -9 6 2 13 -5
14 -14 3 -15 0 -14 -28 3 -37 22 -51 24 -44 6 3 -8 -4 -14 -19 -15 -13 -1 -24
3 -24 9 0 5 -5 7 -10 4 -6 -3 -10 -1 -10 5 0 6 -10 4 -25 -6 l-25 -16 0 -223
0 -223 33 -12 c17 -6 59 -15 91 -20 32 -5 63 -13 67 -17 5 -5 12 -176 16 -380
6 -256 12 -376 19 -383 7 -7 54 -15 105 -19 52 -5 84 -9 72 -10 -40 -2 -24
-18 25 -25 26 -4 103 -9 170 -13 99 -5 126 -3 132 7 7 12 60 11 332 -8 178
-12 330 -23 338 -23 8 -1 -7 -7 -35 -14 l-50 -14 60 5 c33 2 87 6 120 9 l60 4
-54 -10 c-30 -5 -57 -12 -60 -15 -6 -6 109 0 202 11 65 8 108 1 104 -18 -2
-13 62 -14 203 -4 l75 6 -73 -11 c-40 -5 -72 -11 -70 -13 9 -8 198 -13 198 -5
0 4 -8 11 -17 13 -28 7 49 8 101 1 34 -5 44 -10 36 -19 -7 -9 30 -15 160 -24
160 -11 197 -10 186 7 -2 4 35 7 82 7 l87 0 103 315 c57 173 107 326 113 338
9 23 13 24 72 17 34 -4 82 -13 107 -19 88 -23 81 -57 78 402 -3 355 -5 407
-18 404 -11 -2 -11 1 2 11 17 14 27 94 11 84 -16 -10 -113 -16 -113 -8 0 9 40
27 48 22 2 -1 9 5 16 15 9 11 21 15 35 11 l21 -5 0 283 0 283 -31 6 c-17 3
-55 7 -83 7 -28 1 -64 4 -81 8 -28 6 -30 9 -27 46 2 27 0 36 -6 26 -8 -11 -34
-12 -133 -7 -68 4 -138 9 -155 12 -18 3 -35 1 -38 -5 -4 -6 -13 -11 -19 -11
-8 0 -8 3 1 9 8 5 -16 11 -64 15 -52 5 -79 4 -84 -4 -5 -8 -10 -7 -18 3 -8 10
-46 16 -115 21 -56 4 -124 9 -152 12 l-50 5 25 -21 c57 -47 90 -85 85 -98 -2
-7 -1 -11 4 -8 13 9 34 -22 27 -39 -3 -9 -2 -14 2 -11 12 7 51 -107 48 -143
-1 -17 1 -31 5 -31 4 0 9 -18 11 -40 2 -23 -1 -40 -7 -40 -6 0 -6 -3 1 -8 13
-8 12 -40 -1 -61 -5 -10 -4 -12 3 -7 8 5 12 -1 12 -14 0 -12 -4 -18 -10 -15
-6 4 -9 1 -8 -7 2 -7 -3 -12 -11 -10 -11 2 -12 0 -3 -11 10 -11 6 -19 -17 -38
-16 -13 -29 -28 -30 -34 -1 -5 -5 -10 -11 -10 -5 0 -10 -4 -11 -10 0 -5 -17
-15 -37 -20 -20 -6 -37 -17 -37 -24 0 -8 -17 -20 -39 -27 -37 -13 -61 -11 -51
6 3 4 -4 10 -15 13 -10 3 -22 0 -25 -7 -3 -8 -7 -8 -11 2 -3 6 -11 9 -17 5 -7
-3 -9 -2 -5 2 5 5 28 9 52 10 33 1 43 -2 39 -12 -3 -7 0 -13 7 -13 6 0 8 5 5
10 -4 6 5 10 20 10 14 0 24 4 21 9 -3 5 1 14 9 21 8 7 12 16 9 21 -3 5 10 6
28 3 24 -4 29 -3 18 4 -8 6 -18 8 -24 5 -5 -3 -6 -1 -2 6 4 6 12 8 18 5 7 -5
9 -1 5 9 -8 20 4 22 22 5 10 -11 11 -10 6 5 -7 18 10 24 18 7 3 -6 4 -5 3 2
-2 7 -14 13 -27 13 -15 0 -24 6 -24 15 -1 31 -14 40 -40 28 -14 -6 -25 -15
-25 -20 0 -5 -6 -6 -12 -2 -8 4 -9 3 -5 -2 5 -5 16 -9 25 -10 45 -3 52 -5 52
-14 0 -5 -7 -10 -15 -10 -8 0 -15 5 -15 10 0 6 -5 10 -11 10 -5 0 -7 -4 -4
-10 4 -7 -3 -7 -20 0 -33 13 -66 14 -47 1 16 -10 -51 -45 -83 -44 -11 1 -14
-1 -7 -4 19 -7 14 -23 -8 -23 -11 0 -20 3 -20 8 1 17 27 37 47 36 14 -1 20 3
16 12 -3 8 -9 12 -13 9 -4 -3 -10 2 -13 10 -4 10 -1 12 10 8 12 -5 14 -1 9 14
-5 17 -2 20 16 18 34 -4 35 -5 13 -15 -13 -6 -15 -9 -5 -9 8 0 26 7 40 15 14
8 17 13 8 10 -20 -6 -34 10 -16 17 10 4 9 6 -1 6 -11 1 -11 4 -1 16 6 8 10 20
7 27 -3 8 -6 5 -6 -6 -1 -15 -4 -16 -16 -6 -13 11 -14 10 -9 -5 5 -13 3 -16
-7 -13 -8 3 -19 -4 -26 -16 -7 -12 -12 -15 -13 -8 0 7 -5 10 -11 6 -8 -4 -7
-9 2 -15 16 -10 11 -16 -16 -21 -11 -1 -23 -10 -27 -18 -6 -11 -7 -10 -5 5 1
11 9 20 16 20 8 0 15 8 17 18 1 11 21 35 44 54 22 19 39 38 36 41 -3 2 -13 -1
-23 -9 -14 -12 -14 -10 2 14 10 16 21 25 24 20 11 -15 30 -13 25 2 -13 32 -39
15 -101 -62 -27 -35 -43 -48 -46 -39 -3 7 10 28 29 47 26 25 31 36 23 46 -9
10 -8 13 1 13 8 0 10 3 7 7 -4 3 -15 -1 -24 -10 -10 -8 -22 -16 -28 -16 -13
-1 -14 -22 -3 -38 13 -17 -8 -25 -21 -9 -8 10 -9 16 -1 21 6 3 8 10 5 15 -3 5
-1 11 4 14 5 3 7 14 4 24 -2 10 6 27 21 41 14 14 26 29 26 34 0 6 -8 0 -19
-11 -10 -12 -22 -22 -26 -22 -5 0 0 9 9 19 12 13 14 21 6 26 -8 5 -7 11 2 23
11 14 10 15 -6 9 -14 -6 -17 -4 -12 9 5 12 2 15 -10 10 -14 -5 -15 -4 -5 8 11
13 15 12 32 -5 22 -22 24 -35 7 -42 -10 -4 -10 -6 0 -6 7 -1 15 6 18 14 8 21
24 9 19 -15 -2 -12 0 -18 4 -16 4 3 19 -6 31 -19 21 -23 20 -30 -3 -26 -5 1
-5 -3 -2 -10 5 -7 15 -4 29 10 28 26 36 26 31 1 -4 -18 -2 -19 20 -4 14 9 26
11 29 5 3 -5 0 -12 -6 -15 -7 -3 -2 -3 11 0 17 4 21 3 16 -6 -6 -9 -3 -9 14
-1 11 7 21 14 21 17 0 3 -4 2 -10 -1 -5 -3 -20 0 -32 7 -13 6 -30 12 -38 13
-17 0 -15 36 3 47 9 6 8 8 -1 8 -7 0 -16 -8 -19 -17 -8 -22 -35 -43 -46 -36
-5 3 6 20 24 39 18 19 29 34 25 34 -5 0 -3 6 3 14 8 10 8 16 -3 25 -10 8 -16
9 -21 1 -3 -5 -3 -10 1 -10 4 0 -1 -9 -11 -20 -10 -11 -22 -17 -27 -14 -5 3
-2 15 8 25 9 11 14 22 11 26 -4 3 -7 1 -7 -6 0 -7 -5 -9 -10 -6 -8 5 -7 12 2
23 7 10 8 14 4 10 -10 -9 -37 23 -29 35 3 4 11 3 18 -3 10 -8 15 -8 21 2 4 7
4 10 -1 6 -4 -4 -14 -3 -20 2 -9 7 -16 6 -25 -5 -7 -8 -17 -15 -23 -15 -6 0 4
16 23 35 24 25 37 32 46 24 8 -7 14 -7 19 1 3 6 11 8 16 4 5 -3 7 -10 3 -15
-3 -5 0 -8 8 -7 8 2 12 -5 11 -17 -1 -11 0 -14 3 -7 5 10 10 10 25 -4 10 -9
17 -20 14 -24 -2 -4 3 -7 11 -7 9 0 -4 20 -32 48 -34 34 -51 46 -60 39 -8 -7
-15 -5 -24 5 -11 13 -9 20 16 43 17 15 22 21 13 14 -19 -15 -39 -9 -39 12 0 8
-8 20 -17 27 -16 13 -17 12 -4 -4 12 -15 11 -20 -8 -36 -25 -21 -27 -44 -6
-61 13 -11 13 -14 -1 -27 -8 -8 -22 -12 -31 -9 -13 5 -13 4 -4 -7 9 -11 8 -17
-2 -26 -8 -6 -16 -8 -20 -5 -8 8 -3 -18 6 -33 4 -7 15 -9 25 -6 16 6 16 6 0
-10 -18 -18 -33 -23 -23 -8 7 12 -31 25 -45 16 -5 -3 -10 -2 -10 3 0 5 9 12
19 15 22 5 22 38 1 45 -9 3 -11 -1 -7 -12 5 -14 3 -15 -13 -6 -23 13 -40 13
-20 0 8 -5 15 -23 16 -39 1 -19 -2 -28 -9 -24 -6 3 -7 1 -3 -5 4 -6 2 -21 -5
-33 -9 -17 -8 -23 2 -30 11 -7 10 -9 -4 -9 -10 0 -15 -4 -12 -10 3 -5 1 -10
-5 -10 -7 0 -9 9 -5 23 6 21 6 22 -10 2 -13 -17 -13 -20 -1 -27 10 -6 14 -20
12 -43 -2 -19 -1 -33 3 -31 4 3 13 0 21 -5 13 -9 13 -10 0 -8 -32 3 -46 -1
-32 -9 9 -6 10 -15 3 -33 -9 -22 -10 -23 -10 -3 -1 12 -9 28 -18 35 -9 8 -14
9 -10 3 4 -7 -1 -15 -10 -18 -15 -6 -15 -8 -3 -16 11 -7 17 -4 22 8 5 12 6 9
5 -10 -1 -15 -5 -24 -9 -22 -4 3 -8 0 -8 -6 0 -6 -5 -8 -12 -4 -7 4 -8 3 -4
-4 4 -6 14 -8 24 -5 9 3 14 3 10 -2 -4 -4 0 -14 10 -21 9 -7 12 -14 6 -14 -6
0 -11 -11 -11 -25 0 -13 3 -22 8 -19 5 3 9 0 9 -5 0 -18 -19 -12 -30 9 -6 11
-8 20 -4 20 3 0 1 7 -6 15 -7 8 -9 15 -4 15 5 0 -2 6 -16 13 -14 7 -25 19 -25
26 0 8 -5 16 -12 18 -7 3 -9 -3 -6 -16 3 -12 9 -21 14 -21 5 0 5 -8 2 -17 -5
-13 -2 -15 11 -10 16 6 25 -4 30 -35 1 -7 6 -20 10 -28 5 -8 6 -12 1 -8 -4 4
-14 3 -22 -3 -7 -6 -13 -8 -13 -4 0 4 -8 1 -17 -6 -16 -13 -17 -12 -4 4 7 9
20 17 28 17 8 0 12 4 8 10 -3 5 -12 7 -19 4 -8 -3 -16 4 -21 18 -4 13 -8 26
-10 31 -6 18 -7 22 -6 29 0 4 -4 19 -9 34 -9 22 -8 25 5 20 8 -3 15 -1 15 5 0
6 -13 8 -32 5 -18 -3 -26 -3 -18 0 8 4 24 14 34 23 11 9 16 11 13 5 -9 -15 23
-28 36 -15 5 5 5 17 -2 29 -6 11 -8 28 -5 36 3 9 1 16 -5 16 -6 0 -12 10 -12
23 -1 17 -2 18 -6 4 -3 -10 0 -24 6 -31 8 -9 7 -18 -4 -32 -15 -18 -15 -18 -8
0 4 11 1 23 -8 30 -17 13 -23 36 -9 36 5 0 10 11 10 24 0 14 5 28 11 32 7 4 9
0 5 -13 -4 -12 -2 -20 6 -20 7 0 13 12 13 27 0 18 -4 26 -12 23 -8 -3 -13 2
-13 12 0 11 5 15 14 12 8 -3 16 2 19 14 4 17 3 18 -9 8 -11 -9 -14 -8 -14 5 0
9 4 16 10 16 5 0 7 7 4 15 -4 8 -10 15 -16 15 -5 0 -6 -4 -3 -10 3 -5 1 -18
-5 -27 -9 -15 -10 -11 -6 17 3 19 9 48 12 64 5 20 3 27 -4 22 -6 -4 -9 -13 -6
-20 3 -8 1 -17 -5 -21 -6 -3 -11 0 -11 9 0 8 -3 22 -7 32 -4 12 -3 15 5 10 8
-5 12 0 12 13 0 12 -5 21 -11 21 -7 0 -9 11 -6 30 4 17 3 30 -1 30 -14 0 -11
95 4 118 9 14 10 21 3 20 -6 -2 -13 2 -16 9 -5 14 20 11 40 -5 11 -9 17 -10
22 -2 4 6 1 9 -7 8 -7 -2 -12 3 -10 10 1 8 -2 11 -7 8 -5 -4 -12 -2 -16 4 -4
6 -10 8 -15 5 -5 -3 -11 -1 -15 5 -3 5 -12 10 -18 10 -7 0 -4 -5 6 -11 9 -6
15 -15 11 -20 -3 -5 0 -16 6 -24 9 -11 9 -15 1 -15 -6 0 -14 8 -17 18 -3 9 -9
24 -14 33 -5 10 -4 21 1 26 7 7 1 18 -18 33 -17 13 -21 21 -11 18 9 -1 23 5
30 15 13 17 15 17 33 -5 13 -15 14 -18 3 -10 -12 10 -18 10 -24 1 -4 -7 -3 -9
4 -5 6 3 14 2 17 -4 5 -8 11 -7 21 1 8 6 15 9 15 5 1 -3 2 -9 3 -13 1 -5 5
-14 9 -20 5 -7 5 -19 2 -25 -4 -7 2 -2 13 11 14 18 21 21 27 11 6 -9 4 -11 -5
-5 -8 5 -11 4 -6 -3 4 -6 13 -9 21 -5 8 3 15 -1 15 -8 0 -7 3 -9 7 -6 3 4 16
-1 27 -12 18 -16 53 -21 241 -36 339 -25 350 -27 319 -49 -10 -8 -14 -18 -10
-25 6 -9 11 -9 22 0 8 6 18 9 22 5 4 -4 -1 -13 -11 -20 -24 -18 -21 -26 7 -26
27 0 45 18 29 29 -6 3 -13 18 -17 33 l-6 28 57 -5 c88 -8 301 -25 363 -30 30
-2 108 -7 173 -10 l117 -6 0 755 0 756 -730 0 c-632 -1 -730 -3 -730 -15 0 -8
5 -15 10 -15 6 0 10 -12 10 -27 l-1 -28 -14 25 c-8 14 -14 33 -15 43 0 9 -4
17 -10 17 -5 0 -7 -13 -4 -28 4 -20 0 -34 -12 -47 -12 -11 -19 -14 -22 -6 -2
6 -9 8 -15 4 -7 -4 -8 0 -4 10 4 10 10 24 14 34 4 11 3 14 -5 9 -7 -4 -15 -1
-18 8 -6 14 -92 16 -825 16 l-819 0 0 -632z m1903 453 c40 -1 47 -4 47 -21 0
-11 -4 -20 -9 -20 -5 0 -12 -8 -15 -17 -5 -14 -16 -18 -53 -17 -71 3 -123 15
-123 29 0 15 -22 25 -55 25 -13 0 -26 4 -30 9 -6 11 72 19 145 15 25 -1 66 -2
93 -3z m-1039 -103 c5 9 58 7 112 -3 14 -3 23 -15 27 -34 7 -35 -13 -83 -31
-76 -7 3 -11 1 -8 -3 10 -17 -17 -82 -34 -82 -22 0 -120 104 -120 127 0 10 3
35 6 56 6 35 8 37 24 22 11 -10 20 -12 24 -7z m744 -119 c35 -12 78 -63 88
-105 4 -16 11 -35 17 -42 17 -21 21 -157 6 -224 -14 -70 -19 -188 -7 -188 5 0
8 11 8 25 0 34 51 90 75 81 27 -10 12 -86 -33 -164 -40 -69 -60 -89 -85 -79
-13 5 -13 12 4 63 24 72 24 77 -1 36 -11 -18 -20 -39 -20 -47 0 -9 -6 -24 -12
-35 -9 -15 -10 -22 -1 -31 8 -8 9 -18 0 -36 -8 -17 -13 -20 -19 -11 -5 8 -8 1
-8 -19 0 -19 -10 -43 -25 -61 -27 -33 -33 -57 -11 -49 9 4 12 0 10 -11 -12
-46 -31 -244 -26 -268 3 -17 1 -25 -5 -21 -11 7 -28 -37 -24 -60 1 -6 -3 -15
-9 -18 -7 -5 -5 -12 7 -20 16 -13 17 -16 3 -41 -23 -42 -64 -66 -117 -71 -46
-5 -121 14 -95 24 27 10 10 25 -25 21 -32 -4 -41 1 -77 36 -83 83 -108 117
-113 157 -3 21 -9 36 -14 33 -5 -3 -9 3 -10 13 -1 33 -9 67 -17 73 -12 8 -33
110 -25 122 3 7 1 8 -5 4 -8 -5 -12 1 -12 14 0 19 4 18 46 -16 25 -21 51 -45
57 -53 21 -28 93 -72 144 -87 86 -27 123 -14 214 73 75 72 91 93 69 93 -9 0
-81 -45 -136 -85 -42 -31 -191 -20 -202 15 -2 5 -8 10 -14 10 -24 0 -183 144
-174 158 3 6 2 12 -4 14 -5 1 -11 12 -13 23 -2 11 -7 36 -11 56 -6 27 -4 44 9
62 10 17 13 27 6 32 -6 3 -11 13 -11 22 0 9 -10 36 -21 61 -16 33 -20 55 -16
90 3 26 1 67 -3 92 -5 26 -5 58 0 75 5 17 14 56 21 88 7 33 26 79 41 104 l29
46 82 -8 c114 -12 185 -8 226 11 19 9 57 16 85 15 28 0 58 4 66 9 20 13 50 12
88 -1z m-694 -413 c16 -22 18 -30 7 -34 -11 -4 -11 -6 0 -13 8 -4 14 -16 14
-26 0 -10 6 -17 12 -16 13 3 18 -12 28 -88 5 -37 3 -48 -10 -52 -10 -4 -15
-20 -15 -48 0 -57 36 -267 62 -359 11 -41 21 -100 22 -131 1 -50 3 -56 20 -53
10 2 15 0 12 -4 -4 -4 -12 -8 -17 -8 -19 -3 -20 -4 -14 -14 4 -6 13 -7 24 -1
13 7 18 6 18 -5 0 -8 -11 -14 -26 -15 -20 -1 -21 -2 -6 -6 11 -2 30 -6 43 -9
12 -2 22 -9 22 -14 0 -12 -36 -14 -43 -2 -2 4 -2 1 -1 -5 2 -7 -3 -13 -11 -13
-11 0 -15 -13 -15 -50 0 -27 4 -50 10 -50 5 0 9 -6 7 -12 -1 -7 4 -12 11 -11
6 2 12 -2 12 -7 0 -6 -6 -10 -14 -10 -10 0 -13 -10 -12 -32 4 -48 5 -50 16
-43 6 3 10 1 10 -4 0 -6 -6 -11 -12 -12 -12 -1 8 -7 87 -28 l30 -8 -31 -7
c-24 -5 -31 -12 -31 -30 0 -22 2 -23 36 -15 32 7 39 5 66 -23 30 -30 30 -30 5
-24 -14 3 -31 6 -37 6 -7 0 -13 5 -13 11 0 6 7 9 15 5 8 -3 15 -1 15 4 0 13
-24 12 -85 -4 -51 -14 -75 -12 -75 6 0 5 5 6 10 3 6 -3 10 -2 10 3 0 17 -13
21 -34 10 -17 -8 -19 -8 -9 2 6 7 9 19 6 26 -3 8 0 14 7 14 6 0 8 -4 5 -10 -3
-5 -1 -10 4 -10 6 0 11 7 11 16 0 10 6 14 15 11 8 -4 17 -1 21 5 5 7 -5 9 -29
6 -32 -3 -35 -2 -25 15 9 17 7 18 -19 13 -52 -12 -88 -18 -101 -19 -9 0 -10
-3 -2 -11 7 -7 16 -7 29 1 18 12 31 8 31 -9 0 -4 -10 -8 -22 -8 -13 0 -29 -4
-36 -9 -11 -7 -10 -9 3 -14 9 -4 13 -3 10 3 -3 6 4 11 17 11 13 1 33 3 45 4
19 2 22 -2 19 -22 -3 -15 1 -26 10 -30 9 -3 12 -9 7 -12 -4 -3 -13 -15 -19
-26 -6 -11 -16 -21 -23 -21 -6 -1 -18 -2 -27 -3 -11 -1 -13 -7 -9 -21 4 -13 1
-22 -10 -26 -14 -6 -14 -8 2 -20 10 -7 14 -14 8 -14 -5 -1 -18 -3 -28 -5 -12
-2 -17 1 -13 10 3 9 0 12 -10 8 -16 -6 -74 15 -74 28 0 4 10 6 23 4 20 -4 21
-3 5 9 -19 14 -24 36 -8 36 5 0 7 7 3 16 -4 11 -8 12 -13 4 -4 -6 -6 5 -5 25
1 21 8 41 15 45 8 5 7 9 -5 14 -11 4 -15 13 -12 26 3 11 1 20 -5 20 -5 0 -6 5
-2 11 4 8 9 7 15 -2 5 -8 9 -11 9 -7 0 3 3 14 6 22 5 12 2 15 -12 10 -15 -4
-13 0 6 16 14 12 26 26 26 31 1 5 2 13 3 18 0 5 8 12 17 15 14 5 15 4 5 -8
-15 -18 -2 -28 48 -33 48 -5 49 -10 10 -26 l-34 -14 40 1 c24 1 39 -3 38 -10
-1 -6 8 -9 20 -7 21 4 22 8 17 63 -6 61 -13 79 -25 61 -3 -6 -1 -11 4 -11 6 0
11 -7 11 -16 0 -13 -2 -13 -13 -2 -16 15 -18 48 -4 45 5 -1 12 4 15 12 3 8 0
11 -7 7 -6 -4 -11 -2 -11 3 0 6 5 11 10 11 6 0 10 5 10 11 0 5 -4 7 -10 4 -5
-3 -10 -1 -10 4 0 6 6 11 13 11 8 0 9 3 1 8 -6 4 -10 37 -9 83 2 72 1 76 -19
72 -19 -3 -19 -3 1 6 26 12 26 36 -1 139 -23 87 -40 166 -38 174 1 3 -5 12
-13 18 -16 14 -21 35 -6 25 6 -3 8 31 4 87 -5 85 -8 96 -34 123 -16 17 -29 38
-29 47 0 8 -7 32 -15 51 -17 41 -20 97 -6 97 6 0 16 -9 24 -20 11 -16 16 -18
20 -7 5 14 -25 47 -44 47 -5 0 -7 5 -4 11 11 17 36 6 59 -25z m759 -978 c-6
-7 -9 -20 -8 -29 3 -17 -23 -22 -42 -7 -7 6 -14 4 -19 -3 -5 -8 -3 -9 6 -4 10
6 12 4 7 -9 -5 -14 -3 -17 8 -12 8 3 15 2 15 -3 0 -5 -9 -11 -19 -14 -15 -3
-18 -11 -15 -28 5 -22 4 -23 -9 -6 -8 9 -20 17 -28 16 -10 0 -11 -2 -1 -6 17
-7 15 -23 -3 -23 -8 0 -15 6 -15 14 0 17 -27 29 -35 15 -4 -5 -11 -7 -16 -4
-5 4 -9 1 -9 -6 0 -7 10 -9 26 -6 19 3 24 1 20 -10 -5 -11 3 -13 34 -10 22 2
43 6 47 10 3 4 16 7 27 7 17 0 18 2 6 9 -8 6 -18 7 -22 5 -4 -3 -8 0 -8 5 0 6
7 11 15 11 8 0 15 6 15 13 0 8 6 14 14 14 11 0 15 -23 6 -34 -2 -2 -3 -9 -4
-15 0 -7 -17 -20 -36 -30 l-35 -17 39 5 c22 2 37 2 34 -2 -5 -5 -28 -11 -50
-13 -5 -1 -8 -5 -8 -11 0 -5 6 -7 14 -4 10 4 14 -2 12 -20 -1 -24 -16 -38 -16
-16 0 20 -24 37 -45 32 -18 -5 -18 -6 5 -12 14 -3 26 -12 26 -20 1 -8 2 -19 3
-23 0 -4 10 -3 20 3 18 9 20 7 19 -20 -1 -26 -5 -30 -32 -31 -30 -2 -30 -2 -3
-6 15 -3 27 -11 27 -19 0 -11 4 -12 19 -4 14 7 22 7 26 0 4 -6 3 -9 -2 -8 -4
1 -18 -3 -30 -10 -23 -13 -40 -1 -27 20 5 7 3 8 -5 4 -7 -5 -10 -14 -7 -22 4
-10 0 -14 -11 -12 -10 2 -18 -4 -19 -12 -2 -31 -5 -35 -14 -20 -6 10 -3 21 12
37 12 13 16 23 10 23 -18 0 -14 37 4 44 9 3 20 4 25 0 5 -3 9 -1 9 4 0 5 -11
12 -25 15 -14 2 -23 2 -19 -2 3 -3 -11 -12 -33 -19 -27 -8 -30 -11 -10 -8 17
2 26 -1 24 -8 -4 -11 -10 -13 -55 -15 -14 -1 -20 -5 -17 -12 4 -5 -1 -19 -10
-29 -14 -15 -15 -23 -6 -33 6 -8 8 -17 4 -20 -3 -4 -12 1 -20 11 -8 9 -11 11
-7 3 3 -7 0 -17 -7 -22 -20 -12 -59 -11 -59 2 0 5 4 8 9 4 5 -3 12 -1 16 5 4
6 11 7 17 4 7 -4 8 -2 4 4 -4 6 -13 9 -21 5 -20 -7 -19 7 1 21 13 10 8 12 -26
10 -39 -1 -42 0 -37 21 3 16 0 22 -9 18 -7 -2 -21 0 -31 6 -15 9 -13 10 16 11
19 0 31 3 27 8 -4 4 -12 7 -17 7 -12 0 -12 20 1 21 6 1 19 2 31 3 11 0 18 5
14 11 -3 5 -11 7 -19 4 -7 -3 -13 2 -13 10 0 11 10 15 34 14 18 -1 36 2 40 5
12 13 -67 7 -88 -5 -17 -11 -22 -10 -30 5 -6 9 -26 24 -46 32 -20 8 -34 18
-30 21 3 3 15 0 27 -6 27 -15 71 -20 64 -9 -3 5 -13 9 -22 9 -9 0 -24 5 -32
10 -11 8 -7 9 15 4 63 -12 75 -12 68 -1 -4 7 0 8 11 4 13 -5 17 -2 14 11 -2
12 -11 16 -29 14 -15 -2 -42 6 -62 17 -19 11 -37 18 -39 16 -2 -2 -4 5 -5 15
-2 21 5 24 31 14 12 -5 14 -10 6 -19 -7 -8 -6 -12 3 -13 6 -1 35 -4 62 -7 67
-8 76 -12 69 -30 -3 -8 -11 -12 -17 -8 -6 3 -7 1 -3 -5 8 -13 33 -12 54 2 8 5
19 3 25 -4 9 -9 9 -11 -2 -8 -7 2 -15 -5 -16 -15 -3 -14 -1 -16 10 -7 17 14
38 4 28 -13 -4 -7 1 -6 10 2 15 12 17 12 11 -2 -4 -12 -1 -14 17 -10 13 4 18
8 11 11 -16 5 -16 23 1 21 25 -3 38 1 32 11 -5 7 -50 7 -50 0 0 -1 -8 -3 -17
-5 -11 -2 -18 3 -18 12 0 10 6 13 16 9 8 -3 12 -2 9 4 -3 5 -16 10 -28 10 -37
0 -57 3 -57 9 0 12 15 26 28 27 37 3 43 5 39 12 -3 4 19 6 49 5 30 0 52 2 49
6 -2 4 -17 6 -33 3 -16 -2 -32 1 -36 6 -3 5 0 10 7 9 35 -1 57 4 57 14 0 5 -4
8 -9 4 -5 -3 -12 -2 -15 3 -2 4 7 9 21 10 14 1 31 6 37 11 6 5 20 11 31 14 11
2 22 5 24 6 2 0 -1 -5 -6 -11z m1127 -187 c0 -33 5 -63 10 -66 6 -3 10 -11 10
-17 0 -7 -5 -7 -14 1 -11 9 -15 7 -19 -11 -4 -12 -2 -27 4 -34 6 -8 5 -13 -5
-17 -8 -3 -17 -20 -21 -38 -7 -31 -8 -32 -21 -14 -14 18 -14 18 -15 -1 -1 -16
-2 -17 -6 -1 -2 9 -9 17 -14 17 -5 0 -9 9 -9 20 0 21 -15 27 -25 10 -10 -16
-25 -12 -25 6 0 9 7 22 15 28 15 11 19 22 33 100 4 22 13 41 20 44 14 4 16
-14 2 -23 -16 -10 -11 -26 8 -23 14 3 17 -5 18 -45 1 -55 14 -78 14 -24 0 19
5 37 11 39 5 2 11 27 11 56 2 72 18 66 18 -7z m-1669 -125 c-10 -11 -9 -14 1
-12 7 1 19 5 26 9 7 5 12 3 12 -3 0 -7 6 -8 19 0 12 6 22 6 26 1 3 -5 -15 -13
-40 -16 -25 -4 -42 -11 -40 -16 3 -4 17 -4 31 2 21 7 25 7 21 -4 -3 -8 -1 -20
4 -28 5 -8 9 -9 9 -4 0 14 38 17 45 4 4 -5 -1 -9 -9 -9 -8 0 -19 -7 -24 -16
-6 -11 -11 -13 -16 -5 -8 13 -42 15 -50 2 -3 -4 5 -6 19 -3 19 3 24 0 22 -16
-1 -17 -6 -19 -36 -14 l-34 5 6 -37 c3 -22 2 -34 -4 -31 -5 4 -9 19 -9 36 0
30 -3 31 -58 32 -19 0 -20 2 -10 15 11 13 10 14 -8 4 -29 -16 -64 -11 -61 8 1
9 -4 14 -13 12 -10 -1 -8 3 5 13 17 14 18 17 5 25 -10 7 -11 10 -2 11 21 3 27
4 38 11 6 4 21 6 32 3 12 -2 24 0 27 6 4 5 -3 9 -14 9 -12 0 -21 4 -21 9 0 4
10 8 23 7 12 -1 36 1 52 5 36 7 42 4 26 -15z m434 -29 c-13 -19 -13 -24 1 -45
13 -20 14 -26 3 -33 -12 -7 -12 -9 0 -9 10 0 11 -3 2 -14 -9 -10 -6 -13 16
-12 14 1 28 7 31 14 2 7 -2 10 -12 6 -26 -10 -20 31 7 44 17 8 18 11 5 11 -28
1 -21 18 10 23 21 3 28 0 28 -13 0 -10 -4 -15 -8 -13 -4 3 -8 -2 -8 -10 0 -10
-9 -16 -22 -16 -18 0 -20 -2 -9 -9 9 -6 22 -6 33 0 14 7 16 6 12 -6 -3 -8 -10
-12 -15 -9 -5 3 -9 -2 -9 -11 0 -9 4 -14 9 -10 5 3 13 1 16 -5 5 -8 -13 -10
-54 -9 -33 1 -58 6 -55 11 3 4 0 8 -5 8 -6 0 -11 -3 -11 -7 0 -5 -16 -8 -35
-8 -27 -1 -34 3 -30 14 4 10 2 11 -8 3 -8 -7 -18 -8 -27 -1 -13 8 -13 10 0 19
8 5 20 8 27 5 7 -2 15 0 18 5 4 6 15 10 27 10 19 0 19 1 -3 20 -21 17 -22 21
-9 30 8 6 25 9 38 7 12 -2 22 0 22 4 0 5 -9 9 -20 9 -11 0 -20 5 -20 11 0 6 9
9 20 6 11 -3 23 -1 26 4 3 5 10 7 15 4 5 -4 3 -15 -6 -28z m-990 -128 c-2 -3
107 -13 243 -23 136 -9 294 -21 352 -26 58 -5 275 -21 482 -37 208 -15 374
-31 369 -36 -12 -12 -61 -16 -61 -6 0 5 -11 9 -25 9 -14 0 -25 -4 -25 -9 0 -6
-12 -6 -32 0 -23 6 -34 5 -40 -4 -5 -8 -8 -6 -9 8 0 15 -2 16 -7 5 -4 -8 -18
-16 -32 -16 -14 -1 -28 -2 -32 -3 -5 0 -7 -13 -7 -28 1 -17 3 -21 6 -10 5 20
29 21 62 3 l24 -13 -21 -12 c-31 -17 -28 -33 4 -21 30 12 43 13 29 2 -5 -4
-15 -22 -22 -40 -11 -30 -10 -37 8 -55 23 -25 24 -50 4 -67 -21 -18 -19 -30 6
-30 15 0 19 4 15 16 -5 13 -2 15 11 9 10 -4 33 -13 50 -19 43 -16 48 -23 34
-40 -9 -11 -9 -15 1 -19 11 -4 11 -7 0 -18 -11 -12 -14 -12 -22 1 -5 8 -6 18
-4 22 3 4 0 8 -5 8 -6 0 -11 7 -11 16 0 21 -34 14 -38 -8 -2 -12 2 -15 17 -11
27 7 27 -13 1 -29 -17 -11 -20 -24 -20 -75 0 -56 2 -63 20 -63 14 0 20 7 20
23 1 21 1 21 12 3 8 -15 8 -21 0 -24 -7 -2 -12 -15 -12 -28 0 -17 -6 -24 -20
-24 -11 0 -20 -7 -20 -15 0 -9 -9 -15 -24 -15 -14 0 -30 -10 -40 -25 -21 -32
-58 -34 -55 -2 1 12 1 43 1 69 -2 39 -5 45 -20 42 -27 -8 -57 -84 -32 -84 6 0
10 11 10 25 0 26 18 35 25 13 2 -7 6 -41 8 -75 5 -59 4 -61 -14 -50 -11 7 -19
23 -19 40 0 37 -23 31 -31 -9 -4 -16 -7 -22 -8 -13 0 9 -8 19 -16 23 -8 3 -15
15 -15 26 0 28 -12 25 -35 -10 -13 -20 -28 -30 -45 -30 -39 0 -51 -14 -52 -58
0 -32 -4 -41 -21 -46 -12 -3 -24 0 -28 5 -4 6 -16 8 -28 4 -15 -5 -21 -2 -21
9 0 9 -9 16 -20 16 -11 0 -20 5 -20 10 0 15 -32 12 -54 -5 -25 -19 -46 -19
-46 0 0 11 -11 15 -40 15 -28 0 -40 -4 -40 -14 0 -8 5 -16 11 -18 5 -2 7 -11
4 -20 -6 -16 -8 -16 -26 1 -22 20 -69 31 -136 31 -33 0 -45 5 -54 21 -8 17 -8
23 2 29 7 5 -4 8 -26 7 -21 -1 -33 -3 -26 -5 13 -4 15 -32 2 -32 -20 0 -71 27
-64 34 4 4 0 4 -10 0 -9 -3 -17 -12 -17 -20 0 -19 -10 -17 -37 5 -27 22 -30
41 -7 41 9 0 14 6 11 13 -2 6 -12 11 -21 11 -9 -1 -16 4 -16 12 0 8 -4 14 -8
14 -5 0 -15 18 -22 40 -15 45 -40 54 -40 14 0 -14 -4 -23 -10 -19 -5 3 -10 15
-10 26 0 13 -7 19 -21 19 -17 0 -19 3 -10 14 9 10 8 16 -4 26 -8 7 -12 17 -8
23 4 6 6 29 4 51 -2 23 2 42 10 47 10 6 10 11 -1 24 -10 12 -10 19 -2 27 7 7
12 21 12 32 0 17 -2 18 -10 6 -8 -12 -10 -12 -10 -1 0 11 -3 11 -15 1 -12 -10
-15 -10 -15 4 0 9 7 16 15 16 8 0 15 6 15 13 0 6 5 4 11 -6 6 -9 14 -15 20
-12 5 3 6 -2 3 -12 -3 -10 5 2 17 26 21 40 23 42 31 22 4 -13 4 -30 -2 -41 -7
-14 -6 -18 5 -16 8 1 18 6 22 11 4 4 2 5 -4 1 -15 -8 -18 10 -4 19 6 3 15 -3
21 -12 9 -15 10 -14 4 7 -3 14 -13 37 -20 52 -8 15 -11 35 -7 45 6 14 2 13
-17 -5 -13 -12 -29 -22 -36 -22 -7 0 -11 -8 -9 -18 2 -10 -1 -25 -6 -33 -8
-11 -9 -10 -7 5 4 23 -51 43 -64 23 -5 -8 -8 -7 -8 6 0 9 3 17 8 18 87 6 136
19 74 19 -17 0 -34 5 -37 10 -3 6 -16 10 -28 11 -21 0 -21 1 -2 8 12 5 23 4
27 -3 9 -13 12 -9 31 37 19 44 37 48 37 8 0 -20 -6 -31 -17 -34 -10 -3 1 -5
25 -6 30 -1 42 3 42 14 0 7 7 18 16 23 15 8 14 12 -5 31 -20 20 -21 24 -8 39
13 14 13 19 1 30 -15 13 -33 16 -79 13 -27 -2 -28 -3 -10 -12 l20 -9 -20 3
c-11 1 -20 9 -20 17 0 8 -10 16 -22 18 -13 2 -23 9 -23 15 0 7 -4 6 -10 -3 -9
-13 -10 -13 -10 0 0 13 -1 13 -10 0 -8 -13 -10 -12 -10 3 0 12 -8 17 -28 17
-15 0 -42 4 -60 9 -21 6 -32 6 -32 0 0 -6 -4 -7 -10 -4 -5 3 -24 8 -42 10
-102 14 -86 23 38 22 73 -1 130 -4 129 -8z m-375 -494 c0 -158 1 -155 -59
-134 -33 12 -61 52 -61 88 0 59 78 191 112 191 4 0 8 -65 8 -145z"/>
<path d="M1077 3256 c-35 -35 -48 -66 -27 -66 5 0 17 11 25 24 21 32 64 39
124 19 36 -11 49 -20 48 -34 -1 -18 -37 -35 -37 -18 0 14 -106 11 -118 -3 -5
-7 -12 -23 -16 -34 -6 -19 -1 -22 36 -29 24 -4 58 -8 75 -9 43 -1 43 -20 1
-26 l-33 -6 32 -6 c35 -8 83 3 119 27 30 19 30 24 -1 69 -14 21 -21 35 -15 31
5 -3 10 3 10 13 0 34 -64 73 -129 79 -56 5 -59 4 -94 -31z"/>
<path d="M1483 3239 c-12 -4 -24 -18 -28 -31 -4 -13 -16 -35 -26 -50 -11 -14
-19 -31 -19 -37 0 -12 26 -15 33 -3 2 4 2 2 1 -5 -5 -19 13 -25 20 -7 3 8 11
12 17 8 6 -4 7 -9 2 -13 -5 -3 -6 -17 -2 -31 5 -18 7 -20 8 -6 1 15 7 17 35
14 28 -3 33 -1 31 14 -2 10 0 18 6 18 5 0 9 -7 9 -16 0 -11 8 -14 28 -12 22 2
26 7 24 28 -5 32 -1 29 -61 39 -28 4 -54 11 -58 15 -14 13 17 29 67 34 43 4
53 1 70 -18 11 -13 20 -27 20 -32 0 -5 5 -6 10 -3 22 13 10 54 -22 78 -26 20
-45 25 -89 24 -30 0 -65 -4 -76 -8z"/>
<path d="M0 2234 l0 -277 20 23 c17 20 22 21 37 9 17 -13 17 -13 3 5 -11 15
-12 20 -2 23 6 3 12 10 12 16 1 15 77 97 91 97 6 0 8 4 5 9 -6 8 28 59 49 73
5 4 7 8 3 8 -11 0 17 33 99 118 42 44 76 72 83 67 7 -4 8 -11 1 -19 -7 -8 -4
-12 10 -13 10 -1 19 2 19 8 0 5 0 12 0 17 0 4 -5 7 -12 7 -21 0 -19 23 4 39
42 30 29 32 -349 62 l-73 5 0 -277z"/>
</g>
</svg>
